<?xml version="1.0" encoding="iso-8859-1"?>
<!-- Uploaded to: SVG Repo, www.svgrepo.com, Generator: SVG Repo Mixer Tools -->
<svg fill="#f6eee4" version="1.1" id="Capa_1" xmlns="http://www.w3.org/2000/svg" xmlns:xlink="http://www.w3.org/1999/xlink" 
	 viewBox="0 0 697.564 697.564" xml:space="preserve">
<g>
	<path d="M575.838,241.218l-21.383-48.568c-0.009-0.015-0.015-0.035-0.024-0.05c-15.217-34.559-59.392-52.337-124.453-50.067
		c-18.004,0.628-37.137,2.745-57.034,6.258c-53.07-14.364-101.802-19.961-141.146-16.189c-57.765,5.536-80.057,29.763-88.585,49.115
		c-0.002,0.004-0.004,0.009-0.007,0.013l-35.248,80.051C23.078,322.99-15.182,387.267,5.52,434.289
		c0.011,0.028,0.024,0.055,0.037,0.081l35.874,81.471c14.351,32.595,54.469,50.264,113.546,50.264c3.564,0,7.204-0.063,10.905-0.193
		c57.836-2.02,127.316-19.398,196.317-49.034c64.275,24.619,127.82,38.208,179.677,38.361c0.287,0,0.571,0,0.858,0
		c58.912,0,99.193-17.835,113.473-50.266l35.889-81.504c0.007-0.015,0.013-0.031,0.02-0.046
		C714.024,373.665,668.768,303.907,575.838,241.218z M373.206,184.232c1.482-0.085,2.933-0.359,4.321-0.803
		c77.216-13.961,132.889-3.774,144.836,23.248c0.007,0.013,0.011,0.024,0.018,0.037l0.028,0.066
		c2.679,6.129,3.126,13.438,1.48,21.618c-41.344-8.723-97.961-4.218-159.489,11.919c-1.335,0.195-2.642,0.543-3.888,1.033
		c-31.604,8.513-64.446,20.07-97.107,34.449c-12.597,5.547-25.048,11.452-37.152,17.623c-15.408-14.276-27.773-28.34-36.719-41.526
		c16.697-9.123,34.149-17.702,52.076-25.595C288.968,205.447,333.781,191.74,373.206,184.232z M434.237,264.929
		c-1.716-0.755-3.434-1.506-5.155-2.246c30.382-4.402,57.79-5.015,80.003-1.473c-6.103,9.266-13.908,18.98-23.303,28.891
		C469.185,281.149,451.899,272.706,434.237,264.929z M458.799,315.458c-27.456,23.268-61.261,45.534-99.092,65.276
		c-38.901-18.575-74.36-39.954-104.164-62.75c7.239-3.493,14.576-6.878,21.97-10.132c29.861-13.147,60.02-23.839,89.03-31.84
		c17.84,6.116,35.839,13.16,53.58,20.972C433.292,302.779,446.23,308.963,458.799,315.458z M175.26,195.844
		c7.718-17.531,36.305-29.408,81.784-29.408c11.336,0,23.719,0.738,37.091,2.311c-22.029,7.162-44.382,15.697-66.644,25.499
		c-18.28,8.051-36.104,16.785-53.202,26.07C171.968,211.035,172.217,202.75,175.26,195.844z M138.607,279.275
		c0.046-0.127,0.092-0.252,0.138-0.379c0.188-0.508,0.39-1.007,0.606-1.502l10.507-23.861c0.125,0.239,0.256,0.475,0.392,0.709
		c0.239,0.409,0.49,0.806,0.755,1.186c12.194,23.152,32.67,47.62,60.799,72.079c0.201,0.182,0.407,0.361,0.613,0.532
		c29.831,25.838,66.512,50.343,107.441,71.882c-0.503,0.223-1.007,0.447-1.51,0.668c-21.493,9.463-42.469,17.457-62.649,24.067
		c-38.159-24.33-69.406-50.555-90.68-76.148c-0.103-0.129-0.21-0.256-0.315-0.379C142.129,320.855,132.723,295.943,138.607,279.275z
		 M211.738,437.229c-50.568,12.302-94.003,15.119-125.134,10.15c13.416-20.436,34.808-42.441,62.415-64.107
		C166.084,401.526,187.286,419.757,211.738,437.229z M52.427,436.052c-7.077-4.345-12.118-9.666-14.852-15.874
		c-11.29-25.643,14.928-68.382,66.477-111.142c3.22,13.657,10.152,29.373,22.723,47.169
		C92.906,382.843,67.635,409.997,52.427,436.052z M357.332,480.778c-2.016,0.49-3.931,1.335-5.654,2.491
		c-66.188,28.832-132.508,45.737-187.019,47.642c-48.318,1.699-82.386-9.22-91.173-29.183l-10.533-23.918
		c18.726,5.199,41.237,7.447,67.02,6.549c59.56-2.082,131.471-20.447,202.486-51.715c71.017-31.269,133.121-71.91,174.87-114.436
		c17.997-18.33,31.494-36.373,40.307-53.628c0.103,0.068,0.206,0.134,0.309,0.199l10.343,23.487
		c8.791,19.961-6.177,52.468-40.037,86.957c-16.544,16.85-36.658,33.438-59.497,49.209c-0.806,0.464-1.574,0.992-2.296,1.576
		C427.204,445.978,393.589,464.608,357.332,480.778z M610.821,436.231c-25.663,4.155-60.32,3.22-102.52-5.059
		c12.801-10.277,24.503-20.786,34.939-31.415c6.02-6.131,11.538-12.232,16.544-18.28
		C581.836,400.046,599.266,418.768,610.821,436.231z M624.154,490.86c-14.981,34.018-102.91,41.719-216.88,4.82
		c22.546-11.568,43.853-24.032,63.485-37.111c67.051,17.152,123.805,19.694,163.847,8.554L624.154,490.86z M660.068,409.294
		c-0.002,0.004-0.004,0.009-0.004,0.013l-0.011,0.022c-2.618,5.932-7.668,11.22-14.996,15.618
		c-13.805-23.502-35.903-48.049-65.076-72.239c10.638-18.573,15.997-36.323,15.835-52.639
		c17.144,14.434,31.621,29.045,42.682,43.207C659.374,370.01,667.033,393.453,660.068,409.294z"/>
</g>
</svg>